<svg width="53" height="53" viewBox="0 0 53 53" fill="none" xmlns="http://www.w3.org/2000/svg">
<path d="M49.9077 15.1892V19.529H47.7378V21.6989H45.5679V30.3785H43.398V36.8882H41.2281V41.228H39.0582V45.5678H13.0194V41.228H10.8495V36.8882H8.67962V30.3785H6.50972V21.6989H4.33982V19.529H2.16992V15.1892H4.33982V13.0193H8.67962V15.1892H10.8495V19.529H8.67962V21.6989H10.8495V23.8688H13.0194V26.0387H17.3592V23.8688H19.5291V19.529H21.699V15.1892H23.8689V13.0193H21.699V8.67954H23.8689V6.50964H28.2087V8.67954H30.3786V13.0193H28.2087V15.1892H30.3786V19.529H32.5485V23.8688H34.7184V26.0387H39.0582V23.8688H41.2281V21.6989H43.398V19.529H41.2281V15.1892H43.398V13.0193H47.7378V15.1892H49.9077Z" fill="#E2E8F0"/>
</svg>
